<svg version="1.1" id="Layer_1" xmlns="http://www.w3.org/2000/svg" xmlns:xlink="http://www.w3.org/1999/xlink" x="0px" y="0px"
	 width="100%" viewBox="0 0 1024 1024" enable-background="new 0 0 1024 1024" xml:space="preserve">
<path fill="#000000" opacity="1.000000" stroke="none" 
	d="
M308.574890,487.678925 
	C307.457153,444.236816 308.378235,401.241486 308.110138,358.250885 
	C308.063446,350.768188 308.494415,343.288239 310.850494,336.051178 
	C316.362061,319.121613 328.678986,310.592896 345.605194,307.693909 
	C353.411316,306.356934 361.225891,306.593262 368.951385,308.124847 
	C387.423370,311.786896 398.639435,323.828613 405.151459,340.671631 
	C417.041443,371.424408 428.614380,402.299744 440.329010,433.120361 
	C446.718597,449.931183 453.123352,466.736237 459.531219,483.540100 
	C460.948303,487.256195 463.152863,490.243896 467.017944,491.784454 
	C473.126373,494.219116 479.553955,490.820923 480.651398,484.309967 
	C481.090790,481.703156 481.037872,478.996429 481.038574,476.335114 
	C481.057678,401.836212 481.052002,327.337311 481.059937,252.838394 
	C481.060760,245.184631 481.088318,245.152222 488.862915,245.118774 
	C497.529358,245.081482 506.197510,245.203461 514.862061,245.069962 
	C518.830078,245.008820 520.393555,246.393066 520.387634,250.598053 
	C520.276733,328.764343 520.418945,406.931122 520.212036,485.097015 
	C520.139954,512.342041 502.013611,530.002563 474.803802,530.315796 
	C447.656494,530.628357 432.530945,520.654541 422.780914,495.277069 
	C405.399811,450.037445 388.277679,404.698364 371.030945,359.407074 
	C369.964722,356.607025 368.929047,353.773499 367.577118,351.108795 
	C365.100800,346.227936 359.876129,343.588104 355.215393,344.594635 
	C349.939331,345.734009 347.198090,349.159027 347.156982,355.632202 
	C347.026764,376.131226 347.075012,396.631470 347.066620,417.131226 
	C347.058350,437.297852 347.065216,457.464447 347.065369,477.631073 
	C347.065704,523.767822 347.088196,569.904541 347.042084,616.041321 
	C347.035278,622.866577 346.700012,629.709839 344.944458,636.349976 
	C339.846832,655.630920 324.599060,667.264771 303.339630,668.254272 
	C295.632477,668.612915 288.006134,668.086243 280.605713,665.816650 
	C265.742493,661.258362 256.398254,650.711914 250.963943,636.765869 
	C241.412537,612.254272 232.380981,587.539673 223.184662,562.890320 
	C209.737061,526.846069 196.328247,490.787262 182.940659,454.720673 
	C182.324814,453.061615 181.128326,451.444458 181.933960,449.445312 
	C183.372253,448.299011 185.103867,448.711395 186.722260,448.705322 
	C196.555420,448.668518 206.393082,448.863129 216.220062,448.615509 
	C220.332275,448.511841 222.375275,449.822235 223.855179,453.830475 
	C243.924332,508.186890 264.174438,562.476501 284.398956,616.775513 
	C285.500153,619.732117 286.332214,622.833069 288.260803,625.412170 
	C291.180328,629.316406 294.935028,631.471619 299.930634,630.289124 
	C304.799530,629.136597 307.473816,625.619934 307.899994,620.102722 
	C308.028107,618.444397 308.013885,616.772766 308.014984,615.107239 
	C308.041443,575.273987 308.052826,535.440796 308.101471,495.607574 
	C308.104492,493.116302 308.389008,490.625397 308.574890,487.678925 
z"/>
<path fill="#000000" opacity="1.000000" stroke="none" 
	d="
M782.004639,604.291565 
	C777.007751,604.314453 772.497925,604.139404 768.014465,604.406677 
	C761.654236,604.785767 757.796936,608.268127 757.359924,613.571167 
	C756.848389,619.778625 759.848816,623.553528 766.671570,624.956238 
	C768.931335,625.420776 771.287842,625.578613 773.601501,625.589478 
	C786.263550,625.648865 798.926514,625.687012 811.587769,625.573059 
	C814.885010,625.543396 816.438660,626.466370 816.371826,630.076599 
	C816.099915,644.760193 817.996948,642.082153 804.805298,642.252869 
	C793.144714,642.403809 781.480164,642.228638 769.818054,642.304321 
	C765.945923,642.329407 762.159424,641.756287 758.460266,640.844177 
	C748.746399,638.449097 742.098816,632.749084 740.274658,622.536987 
	C738.385803,611.962219 741.076965,603.062927 751.405884,596.372681 
	C745.803955,593.436523 742.483582,589.070312 740.936401,583.480713 
	C736.604980,567.832153 745.669556,553.729797 761.806702,551.836121 
	C778.556152,549.870728 795.421692,551.256714 812.233643,550.992981 
	C812.888550,550.982727 813.761597,550.938599 814.170227,551.309692 
	C818.477539,555.221436 815.599365,560.295105 816.170105,564.815002 
	C816.551086,567.832275 814.080017,568.146362 811.770569,568.147705 
	C799.774780,568.154419 787.779053,568.145630 775.783264,568.156494 
	C773.284668,568.158813 770.778992,568.112976 768.288940,568.277039 
	C761.548218,568.721008 757.440979,572.922607 757.602722,579.075012 
	C757.749084,584.642090 761.798279,588.521240 768.321716,588.628357 
	C780.480957,588.827881 792.646362,588.619446 804.807373,588.749573 
	C816.720154,588.877014 815.191956,586.713135 815.385498,599.910095 
	C815.432861,603.144714 814.187073,604.350281 810.992920,604.315552 
	C801.497437,604.212219 792.000061,604.286377 782.004639,604.291565 
z"/>
<path fill="#000000" opacity="1.000000" stroke="none" 
	d="
M449.812683,598.334473 
	C455.085052,606.229004 455.405121,614.714844 453.682495,623.158020 
	C451.335602,634.660950 442.573059,641.657288 429.292725,642.080444 
	C412.484802,642.616028 395.647675,642.210266 378.823517,642.289124 
	C375.824982,642.303162 374.661987,641.051086 374.699371,638.098450 
	C374.891632,622.903931 372.982025,625.876221 386.482452,625.662354 
	C398.806580,625.467041 411.136353,625.659241 423.463196,625.594971 
	C427.480804,625.573975 431.612549,625.339050 434.696533,622.354065 
	C437.855164,619.296936 438.471954,615.300232 437.183380,611.247559 
	C435.673676,606.499390 431.728943,604.575195 427.135681,604.395996 
	C420.149139,604.123291 413.145447,604.234192 406.149628,604.278198 
	C402.139587,604.303467 398.178040,604.017822 394.222168,603.341858 
	C378.405182,600.639160 372.138428,589.444336 373.276917,575.392761 
	C374.606110,558.988403 383.239685,551.578613 400.951050,551.052429 
	C414.931793,550.637085 428.934937,551.022827 442.926941,550.908020 
	C446.595062,550.877930 447.851685,552.441284 448.021637,555.967651 
	C448.608948,568.155334 448.695251,568.144653 436.598602,568.153992 
	C424.438324,568.163391 412.276398,568.075134 400.118408,568.251770 
	C393.877808,568.342407 390.521698,571.619690 390.238892,577.198975 
	C389.913574,583.616150 393.008575,587.445557 399.464966,587.732605 
	C407.113617,588.072632 414.792755,587.706604 422.444000,588.012939 
	C432.521149,588.416504 442.545013,589.281433 449.812683,598.334473 
z"/>
<path fill="#000000" opacity="1.000000" stroke="none" 
	d="
M631.011353,582.134827 
	C638.523376,602.044861 645.895447,621.591431 653.508362,641.776550 
	C647.455383,642.618225 642.333008,642.300354 637.238220,642.132874 
	C634.432190,642.040771 634.157654,639.420349 633.419250,637.479858 
	C625.487915,616.637085 617.599426,595.778015 609.701355,574.922546 
	C609.347717,573.988770 609.037964,573.037903 608.667908,572.110901 
	C607.735535,569.774719 606.923462,567.237122 603.776672,567.165649 
	C600.576538,567.092957 599.741272,569.634460 598.818542,571.973572 
	C590.329773,593.491028 581.709106,614.958435 573.486511,636.577209 
	C571.745667,641.154419 569.316467,642.913940 564.653503,642.320618 
	C561.092957,641.867615 557.393066,642.944946 553.398743,641.406250 
	C554.899475,634.784058 557.903320,628.834961 560.275391,622.707031 
	C567.784058,603.309631 575.570557,584.019958 583.198181,564.668335 
	C587.945801,552.623291 592.944580,549.296936 605.961426,549.685242 
	C614.346558,549.935303 620.143738,553.901367 623.201965,561.724487 
	C625.806641,568.387878 628.318420,575.087708 631.011353,582.134827 
z"/>
<path fill="#000000" opacity="1.000000" stroke="none" 
	d="
M484.042358,636.125610 
	C474.812439,630.018127 470.403351,621.297729 468.413330,611.128540 
	C466.037262,598.986694 466.439911,586.954102 470.369781,575.163879 
	C474.953735,561.411194 484.959320,553.895874 498.914215,551.855225 
	C512.309204,549.896484 525.864868,551.215942 539.347534,550.968201 
	C542.351807,550.913086 543.601929,552.369263 543.337280,555.283508 
	C543.322266,555.448608 543.343994,555.616638 543.341431,555.783203 
	C543.127258,569.992859 545.328186,567.994385 531.368774,568.154419 
	C523.204346,568.247986 515.036499,568.088135 506.873138,568.221130 
	C493.880585,568.432861 487.549683,573.518433 484.904877,586.189270 
	C483.466522,593.080078 483.490723,600.179138 484.801758,607.053711 
	C487.307281,620.192261 494.198669,625.313782 509.106140,625.583740 
	C518.601868,625.755737 528.107483,625.800110 537.599609,625.553406 
	C541.807312,625.444031 543.586060,626.514893 543.431030,631.095154 
	C542.992737,644.040955 545.003174,642.307312 532.270996,642.209290 
	C521.130615,642.123535 509.959076,643.141907 498.841980,641.438232 
	C493.659271,640.643982 488.841370,638.995972 484.042358,636.125610 
z"/>
<path fill="#000000" opacity="1.000000" stroke="none" 
	d="
M725.518921,625.610229 
	C727.227478,625.760437 729.081116,625.365967 729.163452,627.166992 
	C729.368164,631.644958 729.366943,636.144226 729.169373,640.622681 
	C729.092224,642.372253 727.278564,642.281189 725.988708,642.244202 
	C712.022888,641.843384 698.007141,643.356567 684.087830,641.349976 
	C669.632446,639.266113 659.985168,628.705627 659.766907,614.076111 
	C659.476135,594.591003 659.740479,575.098206 659.619873,555.609558 
	C659.597961,552.063049 661.094421,550.954407 664.380676,550.941101 
	C678.891724,550.882141 676.185669,550.380493 676.291077,561.944702 
	C676.433716,577.601562 676.303589,593.260681 676.337646,608.918762 
	C676.360046,619.182983 679.952515,623.594055 690.148315,624.963806 
	C701.739319,626.520996 713.431335,625.307251 725.518921,625.610229 
z"/>
</svg>